<svg width="34" height="34" viewBox="0 0 34 34" fill="none" xmlns="http://www.w3.org/2000/svg">
<path d="M25.5 21.25C24.3266 21.25 23.375 22.2016 23.375 23.375V29.75H4.25V10.625H10.625C11.7984 10.625 12.75 9.67406 12.75 8.5C12.75 7.32594 11.7984 6.375 10.625 6.375H4.25C1.90254 6.375 0 8.27754 0 10.625V29.75C0 32.0968 1.90254 34 4.25 34H23.375C25.7225 34 27.625 32.0968 27.625 29.75V23.375C27.625 22.1996 26.6754 21.25 25.5 21.25ZM33.3758 0.622027C32.9906 0.237602 32.4594 0 31.875 0H21.25C20.0766 0 19.1848 0.950937 19.1848 2.06523C19.1848 3.23863 20.1357 4.13047 21.3091 4.13047H26.8042L11.8668 19.3043C11.0367 20.1344 11.0367 21.4798 11.8668 22.3098C12.6969 23.1426 14.0449 23.1426 14.875 22.3125L29.75 7.25156V12.75C29.75 13.9234 30.7016 14.8152 31.8152 14.8152C32.9289 14.8152 34 13.9254 34 12.75V2.06523C34 1.53797 33.7609 1.00672 33.3758 0.622027Z" fill="#EFEFEF"/>
</svg>
