<svg width="34" height="34" viewBox="0 0 34 34" fill="none" xmlns="http://www.w3.org/2000/svg">
<path d="M22.8438 15.9375H19.125L19.0652 10.0938C19.0652 9.21387 18.3514 8.5 17.4715 8.5H16.409C15.5855 8.5 14.8152 9.21719 14.8152 10.0938L14.875 15.9375H11.1562C10.5233 15.9375 9.95031 16.3131 9.69531 16.8924C9.44297 17.4715 9.55586 18.1488 9.9875 18.6137L15.8811 24.9887C16.1832 25.3141 16.6082 25.5 17.0531 25.5C17.5698 25.4792 17.933 25.3091 18.2318 24.9791L24.0258 18.6041C24.4512 18.1372 24.5591 17.4626 24.3039 16.8855C24.0487 16.3084 23.4746 15.9375 22.8438 15.9375ZM17 0C7.61016 0 0 7.61016 0 17C0 26.3898 7.61016 34 17 34C26.3898 34 34 26.3898 34 17C34 7.61016 26.3898 0 17 0ZM17 30.8125C9.3832 30.8125 3.1875 24.6161 3.1875 17C3.1875 9.38387 9.3832 3.1875 17 3.1875C24.6168 3.1875 30.8125 9.38387 30.8125 17C30.8125 24.6161 24.6168 30.8125 17 30.8125Z" fill="#EFEFEF"/>
</svg>
