<svg width="34" height="34" viewBox="0 0 34 34" fill="#fff" xmlns="http://www.w3.org/2000/svg">
<g clip-path="url(#clip0_15_330)">
<path fill-rule="evenodd" clip-rule="evenodd" d="M16.9994 0.423584C7.61244 0.423584 0 8.03475 0 17.4229C0 24.9343 4.87039 31.3044 11.6251 33.5532C12.4753 33.7107 12.7878 33.1836 12.7878 32.7344C12.7878 32.329 12.7709 30.99 12.764 29.5707C8.03415 30.5991 7.0371 27.564 7.0371 27.564C6.26402 25.5988 5.14962 25.0761 5.14962 25.0761C3.60729 24.0201 5.26697 24.0433 5.26697 24.0433C6.97367 24.1625 7.87222 25.794 7.87222 25.794C9.38947 28.3929 11.8504 27.6406 12.8198 27.207C12.9729 26.1083 13.4122 25.3579 13.899 24.9331C10.1229 24.5045 6.15358 23.0463 6.15358 16.5319C6.15358 14.6764 6.8187 13.1592 7.90484 11.9695C7.72793 11.5404 7.14563 9.81231 8.06863 7.4712C8.06863 7.4712 9.49609 7.01379 12.7452 9.2137C14.1005 8.83784 15.5543 8.64834 16.9981 8.64207C18.4431 8.64834 19.8995 8.8372 21.2567 9.2137C24.5014 7.01507 25.9276 7.4712 25.9276 7.4712C26.8519 9.81295 26.2721 11.5422 26.0952 11.9696C27.1851 13.1592 27.8446 14.6764 27.8446 16.5319C27.8446 23.0613 23.8664 24.4969 20.0821 24.918C20.692 25.445 21.2367 26.4797 21.2367 28.0647C21.2367 30.3381 21.2172 32.1702 21.2172 32.7293C21.2172 33.1817 21.5234 33.7107 22.3855 33.545C29.1365 31.2949 34.0006 24.9242 34.0006 17.4172C34.0006 8.03029 26.3895 0.417847 17.0006 0.417847L16.9994 0.423531L16.9994 0.423584Z" fill="#EFEFEF"/>
</g>
<defs>
<clipPath id="clip0_15_330">
<rect width="34" height="34" fill="white"/>
</clipPath>
</defs>
</svg>
