<svg width="58" height="58" viewBox="0 0 58 58" fill="none" xmlns="http://www.w3.org/2000/svg">
<path fill-rule="evenodd" clip-rule="evenodd" d="M0 0H58V58H0V0Z" fill="#F7DF1E"/>
<path fill-rule="evenodd" clip-rule="evenodd" d="M15.2505 48.4702L19.6873 45.7845C20.5417 47.3043 21.3205 48.5882 23.1896 48.5882C24.9785 48.5882 26.1113 47.8896 26.1113 45.1614V26.6258H31.563V45.2369C31.563 50.8821 28.2542 53.4498 23.4256 53.4498C19.0643 53.4498 16.5343 51.1936 15.2505 48.4702ZM34.5225 47.8849L38.9593 45.3172C40.1299 47.2241 41.645 48.6259 44.3307 48.6259C46.5869 48.6259 48.0312 47.4978 48.0312 45.9402C48.0312 44.0711 46.5539 43.4103 44.0617 42.32L42.6976 41.7347C38.7658 40.059 36.1556 37.9586 36.1556 33.5218C36.1556 29.4342 39.2708 26.319 44.1372 26.319C47.6017 26.319 50.0939 27.5273 51.8828 30.6803L47.6395 33.4038C46.7049 31.7281 45.6948 31.0673 44.1372 31.0673C42.5418 31.0673 41.527 32.0774 41.527 33.4038C41.527 35.0369 42.5371 35.7024 44.8735 36.7125L46.2376 37.2978C50.8727 39.285 53.4782 41.3099 53.4782 45.8647C53.4782 50.7688 49.6219 53.4546 44.444 53.4546C39.3888 53.4546 36.1178 51.0379 34.5225 47.8849Z" fill="black"/>
</svg>
