<svg width="35" height="35" viewBox="0 0 35 35" fill="none" xmlns="http://www.w3.org/2000/svg">
<g clip-path="url(#clip0_12_68)">
<path fill-rule="evenodd" clip-rule="evenodd" d="M7.90405 0.0811768H27.0959C29.1904 0.0871888 31.1973 0.921866 32.6783 2.40286C34.1593 3.88386 34.994 5.89079 35 7.98523V27.0176C34.9932 29.1116 34.1582 31.1178 32.6773 32.5982C31.1964 34.0785 29.1899 34.9128 27.0959 34.9188H7.90405C5.81011 34.9128 3.8036 34.0785 2.32269 32.5982C0.841771 31.1178 0.00676306 29.1116 0 27.0176V7.98523C0.00601205 5.89079 0.840689 3.88386 2.32169 2.40286C3.80268 0.921866 5.80962 0.0871888 7.90405 0.0811768V0.0811768Z" fill="#0A66C2"/>
<path fill-rule="evenodd" clip-rule="evenodd" d="M14.0108 13.585H18.4342V15.8636H18.4969C19.115 14.7585 20.6189 13.585 22.8662 13.585C27.5346 13.585 28.3976 16.4903 28.3976 20.27V28.2623H23.7862V21.1586C23.7862 19.5323 23.752 17.4388 21.3879 17.4388C19.0238 17.4388 18.6194 19.2076 18.6194 21.0419V28.2766H14.0108V13.585ZM11.3932 9.13595C11.3932 9.61028 11.2526 10.074 10.989 10.4684C10.7255 10.8628 10.351 11.1701 9.91273 11.3517C9.47451 11.5332 8.9923 11.5807 8.52708 11.4881C8.06186 11.3956 7.63452 11.1672 7.29912 10.8318C6.96371 10.4964 6.7353 10.069 6.64276 9.60383C6.55023 9.13861 6.59772 8.65639 6.77924 8.21817C6.96076 7.77994 7.26815 7.40538 7.66255 7.14185C8.05694 6.87833 8.52062 6.73767 8.99496 6.73767C9.63079 6.73842 10.2404 6.99134 10.69 7.44094C11.1396 7.89054 11.3925 8.50011 11.3932 9.13595ZM6.60238 13.585H11.3932V28.2623H6.60238V13.585Z" fill="white"/>
</g>
<defs>
<clipPath id="clip0_12_68">
<rect width="35" height="35" fill="white"/>
</clipPath>
</defs>
</svg>
