<svg width="50" height="56" viewBox="0 0 50 56" fill="none" xmlns="http://www.w3.org/2000/svg">
<g clip-path="url(#clip0_13_201)">
<path fill-rule="evenodd" clip-rule="evenodd" d="M31.3442 39.6849C22.3722 39.6849 20.4912 35.5651 20.4912 32.1061C20.4912 31.778 20.7554 31.5136 21.0833 31.5136H23.7339C24.0254 31.5136 24.2713 31.7278 24.3169 32.0149C24.7176 34.7174 25.9063 36.08 31.3351 36.08C35.6571 36.08 37.4925 35.1048 37.4925 32.8079C37.4925 31.4863 36.9687 30.5065 30.2557 29.8502C24.6402 29.2942 21.1698 28.0592 21.1698 23.5612C21.1698 19.4231 24.6584 16.9576 30.5062 16.9576C37.0735 16.9576 40.3252 19.2363 40.7351 24.1399C40.7488 24.3086 40.6896 24.4726 40.5757 24.5957C40.4619 24.7142 40.3025 24.7871 40.1385 24.7871H37.4788C37.201 24.7871 36.9596 24.5911 36.905 24.3268C36.2628 21.4876 34.7143 20.5761 30.4971 20.5761C25.7788 20.5761 25.2323 22.2213 25.2323 23.4518C25.2323 24.9466 25.879 25.3841 32.2459 26.2272C38.5491 27.0657 41.5412 28.2461 41.5412 32.6803C41.5412 37.151 37.8158 39.7122 31.3168 39.7122L31.3442 39.6849ZM25.0091 56C24.2577 56 23.5153 55.804 22.8595 55.4257L16.0144 51.3698C14.9896 50.7955 15.4906 50.595 15.8276 50.4765C17.1894 49.998 17.4672 49.8932 18.9246 49.0638C19.0794 48.9772 19.2798 49.0091 19.4346 49.1002L24.6949 52.222C24.8862 52.3268 25.1549 52.3268 25.3325 52.222L45.8405 40.3776C46.0318 40.2682 46.1548 40.0494 46.1548 39.8216V16.1464C46.1548 15.9095 46.0318 15.6998 45.836 15.5813L25.3325 3.74605C25.1412 3.63212 24.8907 3.63212 24.6994 3.74605L4.20505 15.5813C4.00466 15.6953 3.8817 15.914 3.8817 16.1419V39.8216C3.8817 40.0494 4.00466 40.2636 4.2005 40.373L9.81596 43.6178C12.8628 45.1445 14.7301 43.3444 14.7301 41.5397V18.1653C14.7301 17.8326 14.9896 17.5729 15.3267 17.5729H17.9226C18.246 17.5729 18.5147 17.8281 18.5147 18.1653V41.5488C18.5147 45.6185 16.2967 47.9518 12.4438 47.9518C11.2597 47.9518 10.3215 47.9518 7.71642 46.6666L2.32868 43.5631C1.6748 43.1819 1.13222 42.6358 0.755043 41.9793C0.377863 41.3228 0.179263 40.5788 0.179047 39.8216L0.179047 16.1419C0.179047 14.6015 0.998821 13.1614 2.32868 12.4003L22.8549 0.551392C24.1529 -0.182332 25.879 -0.182332 27.1679 0.551392L47.6713 12.4049C48.9966 13.1705 49.821 14.6015 49.821 16.1464V39.8261C49.821 41.3619 48.9966 42.7929 47.6713 43.5677L27.1679 55.4166C26.5109 55.7938 25.7665 55.9918 25.0091 55.9908V56Z" fill="#689F63"/>
</g>
<defs>
<clipPath id="clip0_13_201">
<rect width="50" height="56" fill="white"/>
</clipPath>
</defs>
</svg>
