<svg width="60" height="62" viewBox="0 0 60 62" fill="none" xmlns="http://www.w3.org/2000/svg">
<path d="M57.3947 38.1193C49.9989 39.6431 49.4891 37.1405 49.4891 37.1405C57.2988 25.5609 60.56 10.8581 57.7431 7.26061C50.0595 -2.55303 36.7572 2.0889 36.535 2.20999L36.4593 2.22008C35.0003 1.91735 33.3647 1.73571 31.5271 1.70543C28.18 1.64993 25.6407 2.58336 23.7173 4.04153C23.7173 4.04153 -0.0148995 -5.73174 1.09069 16.3325C1.32796 21.0249 7.82011 51.8433 15.5693 42.5342C18.4014 39.1284 21.1376 36.2525 21.1376 36.2525C22.4956 37.1556 24.1262 37.6148 25.8275 37.4483L25.9588 37.3373C25.9184 37.7611 25.9386 38.1748 26.0093 38.6642C24.0152 40.8944 24.6008 41.2829 20.6075 42.1053C16.5689 42.9379 18.9416 44.4162 20.4914 44.8047C22.3694 45.274 26.711 45.94 29.6491 41.8329L29.533 42.3021C30.3155 42.9278 30.8658 46.3739 30.7749 49.4971C30.684 52.6203 30.6234 54.7647 31.2393 56.4398C31.8552 58.1149 32.4711 61.884 37.7163 60.7588C42.0983 59.8203 44.37 57.3884 44.6881 53.3317C44.9102 50.4457 45.4201 50.8745 45.4504 48.2962L45.8593 47.0752C46.3288 43.1649 45.935 41.9035 48.6359 42.4888L49.2922 42.5443C51.2812 42.6351 53.8811 42.2264 55.4057 41.515C58.6821 39.9963 60.6358 37.4483 57.3947 38.1193Z" fill="#336791"/>
<path d="M29.0534 40.3343C29.0567 40.2144 29.0836 40.0963 29.1326 39.9867C29.1816 39.8772 29.2517 39.7784 29.3389 39.6959C29.4261 39.6135 29.5287 39.549 29.6408 39.5061C29.7529 39.4633 29.8724 39.443 29.9924 39.4463C30.1124 39.4496 30.2306 39.4765 30.3401 39.5254C30.4497 39.5744 30.5486 39.6444 30.6311 39.7316C30.7136 39.8187 30.7781 39.9213 30.821 40.0333C30.8639 40.1454 30.8842 40.2648 30.8809 40.3847C30.7749 44.1336 30.7951 47.8926 30.9314 50.8997C31.0576 53.6092 31.2747 55.6476 31.5776 56.4044C31.9007 57.2067 32.4004 58.3924 33.3596 59.1946C34.2936 59.9817 35.7323 60.4611 38.0243 59.9717C40.0285 59.5428 41.3764 58.9323 42.275 57.9988C43.1635 57.0755 43.6683 55.7687 43.9813 53.9422C44.2135 52.6102 44.5316 50.2842 44.8193 47.9682C45.1828 45.0721 45.516 42.1457 45.5867 41.2021C45.595 41.0823 45.627 40.9653 45.6808 40.8579C45.7347 40.7505 45.8093 40.6549 45.9004 40.5765C45.9915 40.4981 46.0972 40.4386 46.2115 40.4014C46.3257 40.3641 46.4463 40.3499 46.5661 40.3595C47.0709 40.3948 47.4495 40.8338 47.4091 41.3384C47.3385 42.2567 47.0053 45.2184 46.6266 48.2003C46.3237 50.5919 46.0006 52.9634 45.7785 54.25C45.3999 56.4347 44.7588 58.0442 43.5825 59.2653C42.4113 60.4813 40.7706 61.2482 38.3928 61.7578C35.4395 62.3885 33.4909 61.6972 32.1733 60.5872C30.8758 59.4974 30.2599 58.0543 29.8712 57.0805C29.4876 56.1269 29.2301 53.8766 29.0938 50.9754C28.9625 47.943 28.9474 44.1336 29.0534 40.3343Z" fill="white"/>
<path d="M24.0152 3.03234C24.4847 3.21902 24.7118 3.74881 24.5251 4.21805C24.3383 4.68728 23.8082 4.91434 23.3387 4.72765C23.2781 4.70242 0.914008 -4.43007 1.94892 16.1962C2.07512 18.7443 4.09446 29.1684 7.16384 36.4391C8.13312 38.7298 9.19832 40.6875 10.3291 41.9388C11.2732 42.9882 12.2374 43.4928 13.1663 43.1598C13.6812 42.9731 14.2315 42.5543 14.8121 41.858C17.6543 38.4422 20.239 35.7428 20.2491 35.7377C20.5975 35.3745 21.173 35.3593 21.5364 35.7075C21.8999 36.0556 21.9151 36.6308 21.5667 36.9941C21.5617 36.9991 19.0375 39.6279 16.2155 43.0235C15.4128 43.9923 14.595 44.5927 13.7721 44.8854C12.0254 45.506 10.42 44.7794 8.9661 43.1648C7.69392 41.7571 6.52271 39.6228 5.48275 37.1455C2.32754 29.6831 0.252677 18.9259 0.12142 16.282C-1.05484 -7.21018 23.9445 3.00206 24.0152 3.03234Z" fill="white"/>
<path d="M36.9843 2.89111L35.6263 1.40772C35.7374 1.36735 35.8485 1.33203 35.9595 1.30176C36.2574 1.20589 36.5805 1.11003 36.9288 1.00911C37.4387 0.857748 38.1858 0.66097 39.0996 0.484375C43.6582 -0.3986 52.5534 -0.877929 58.4145 6.6097C60.0704 8.7238 59.9341 13.9561 58.2227 20.152C56.7082 25.6366 53.977 31.9587 50.2009 37.5592C49.9182 37.978 49.3477 38.089 48.9287 37.8065C48.5097 37.5239 48.3986 36.9538 48.6813 36.535C52.3464 31.1009 54.9917 24.9705 56.4608 19.6626C58.0258 14.0015 58.2732 9.38476 56.9757 7.72982C51.7154 1.01416 43.6027 1.46826 39.4378 2.2806C38.5847 2.4471 37.9031 2.6237 37.4387 2.75993L36.9843 2.89111Z" fill="white"/>
<path d="M50.3069 36.7671C50.317 36.7923 50.322 36.8175 50.3271 36.8428C50.3271 36.8478 50.6401 38.4775 57.1575 37.1354C58.0813 36.9437 58.7376 36.984 59.1617 37.1909C59.7119 37.4533 59.9492 37.8922 59.9139 38.4573C59.8937 38.8004 59.7321 39.1688 59.4646 39.5371C58.8487 40.3797 57.4402 41.4696 55.7288 42.2617C54.4465 42.8571 52.4928 43.2557 50.7007 43.3566C49.6456 43.4171 48.6359 43.3768 47.8332 43.2153C46.8235 43.0135 46.0562 42.5947 45.7381 41.9136C45.6523 41.7319 45.6018 41.5351 45.5917 41.3232C45.3898 37.7812 47.1163 37.1606 48.3229 36.8175C48.1967 36.6359 48.025 36.4189 47.8332 36.1818C47.2224 35.4199 46.4399 34.4411 45.8189 32.9425C45.723 32.7155 45.4453 32.2109 45.0718 31.5449C43.4916 28.7143 40.3819 23.1339 40.9927 19.3245C41.4269 16.605 43.5017 14.7987 48.6864 15.3385L48.6359 15.1872C48.3885 14.4858 47.9948 13.5675 47.4243 12.5382C45.1626 8.42105 40.2304 2.67919 31.4716 2.53791C18.1086 2.32095 18.5478 19.1631 18.5478 19.2085C18.5519 19.4507 18.4594 19.6846 18.2909 19.8587C18.2075 19.9449 18.1079 20.0138 17.9978 20.0616C17.8877 20.1093 17.7692 20.1349 17.6492 20.1369C17.5292 20.1389 17.41 20.1172 17.2984 20.0731C17.1868 20.0291 17.0849 19.9635 16.9987 19.8801C16.8245 19.7117 16.7244 19.481 16.7203 19.2388C16.7203 19.1833 16.2256 0.464179 31.4968 0.711412C41.1391 0.867825 46.5509 7.15461 49.0246 11.6553C49.6405 12.7754 50.0797 13.7946 50.3574 14.5867C50.6704 15.4748 50.7865 16.171 50.736 16.4788C50.6653 16.9329 50.4129 17.2155 49.9787 17.3013L49.6506 17.3063C44.8951 16.5444 43.0979 17.7099 42.795 19.6071C42.2851 22.8009 45.1929 28.008 46.667 30.6569C47.0659 31.3734 47.3688 31.9183 47.5051 32.2513C48.0301 33.5177 48.7167 34.3755 49.2518 35.0516C49.7516 35.6621 50.1453 36.1566 50.3069 36.7671ZM57.526 38.9215C52.6948 39.9206 50.4432 39.189 49.4083 38.4018C49.2669 38.4473 49.1155 38.4876 48.9539 38.533C48.3077 38.7147 47.3031 38.9972 47.4091 41.1668C47.4849 41.2475 47.7676 41.3333 48.1815 41.4191C48.8429 41.5503 49.691 41.5806 50.5946 41.5301C52.1748 41.4393 53.8761 41.1012 54.9615 40.5967C56.0771 40.077 57.0111 39.4513 57.5866 38.9064L57.526 38.9215Z" fill="white"/>
<path d="M26.6353 39.189C26.2617 39.6077 25.9537 39.9962 25.6912 40.3293C24.5705 41.7521 24.2222 42.1961 20.7439 42.9126C20.1179 43.0438 19.6938 43.1699 19.4313 43.2961C19.7544 43.5281 20.239 43.7199 20.6631 43.8258C21.5213 44.0428 22.9449 44.3001 24.4695 44.0428C25.9537 43.7905 27.5541 43.0286 28.8515 41.2122C28.8919 41.1517 28.9272 41.0861 28.9575 41.0205C29.0888 40.7026 29.0585 40.304 28.9272 39.9256C28.7859 39.522 28.5284 39.1688 28.2305 38.9518C28.1599 38.9014 28.0892 38.861 28.0135 38.8307L27.968 38.8105C27.7812 38.7349 27.5743 38.6541 27.3976 38.6693C27.2057 38.6894 26.9634 38.8206 26.6353 39.189ZM24.2525 39.194C24.4998 38.8812 24.7876 38.5179 25.2217 38.0285C25.2571 37.9831 25.2975 37.9377 25.3378 37.8973C26.0093 37.1707 26.6504 36.8983 27.2411 36.8478C27.8267 36.7974 28.281 36.9639 28.6647 37.1253C28.8864 37.2141 29.0966 37.3293 29.2907 37.4684C29.8914 37.8973 30.3862 38.5784 30.6537 39.3201C30.9263 40.0921 30.9718 40.9549 30.6487 41.7218C30.5679 41.9136 30.4669 42.0952 30.3407 42.2718C28.7051 44.5625 26.6656 45.5211 24.7775 45.8441C22.9247 46.1619 21.2386 45.8542 20.2188 45.6019C19.4767 45.4152 18.5579 45.0015 18.0178 44.4969C17.6997 44.1992 17.4826 43.846 17.4221 43.4525C17.3514 42.9832 17.4927 42.5291 17.9218 42.1255C18.3358 41.737 19.1032 41.3838 20.3703 41.1214C23.1923 40.5412 23.4447 40.2233 24.2525 39.194Z" fill="white"/>
<path d="M26.7312 38.3968C26.8069 38.8963 26.4636 39.3655 25.9638 39.4362C25.464 39.5068 24.9945 39.1688 24.9239 38.6693C24.9037 38.5482 24.8936 38.4271 24.8835 38.3009C24.5806 38.2908 24.2827 38.2707 23.9899 38.2252C22.0312 37.9528 20.2592 36.9639 18.9264 35.5006C17.6088 34.0576 16.7203 32.1504 16.5133 30.0211C16.4376 29.2643 16.4528 28.4772 16.5638 27.685C17.0131 24.4862 16.8415 21.6253 16.7557 20.1419C16.7304 19.7383 16.7153 19.4355 16.7153 19.2034C16.7203 18.603 18.2298 17.2811 20.2188 16.4637C21.1174 16.0954 22.122 15.7876 23.1166 15.6362C24.1666 15.4798 25.2268 15.4949 26.1809 15.7926C27.6752 16.2619 28.8616 17.3669 29.3159 19.4809C30.9566 27.0543 29.4875 30.3087 28.3416 32.8568C28.1447 33.2957 27.9579 33.7095 27.8166 34.0828C27.8115 34.1081 27.8014 34.1282 27.7913 34.1535C27.3117 35.4451 28.0134 33.553 27.65 34.5168C27.0795 36.0708 26.5797 37.4028 26.7312 38.3968ZM25.0804 36.4795C25.2772 35.6671 25.6003 34.8094 25.9436 33.8861C26.2162 33.1595 25.5044 35.0617 26.0749 33.5228L26.1052 33.4471C26.2819 32.9779 26.4737 32.5591 26.6706 32.1151C27.7105 29.8092 29.0332 26.8626 27.5237 19.8795C27.2309 18.5223 26.5191 17.826 25.6306 17.5485C24.9642 17.3416 24.1818 17.3366 23.3791 17.4577C22.5209 17.5889 21.6626 17.8512 20.8953 18.1641C19.5474 18.714 18.5276 19.1782 18.5276 19.2186C18.5276 19.3498 18.5428 19.6474 18.568 20.046C18.6589 21.5849 18.8356 24.5669 18.3661 27.9474C18.2752 28.6084 18.2601 29.2492 18.3206 29.8647C18.4872 31.5802 19.2041 33.1191 20.2693 34.2847C21.3194 35.435 22.7076 36.2171 24.2322 36.429C24.5149 36.4593 24.7976 36.4795 25.0804 36.4795Z" fill="white"/>
<path d="M23.5911 19.0824C23.5507 19.38 24.1414 20.1823 24.9087 20.2883C25.6761 20.3942 26.3374 19.7686 26.3778 19.4709C26.4182 19.1732 25.8275 18.8402 25.0602 18.7342C24.2928 18.6283 23.6315 18.7847 23.5911 19.0824Z" fill="white"/>
<path d="M23.894 19.1227C23.8839 19.1883 23.9899 19.3598 24.1666 19.5465C24.3635 19.7534 24.6412 19.9401 24.9491 19.9855H24.9542C25.2571 20.0258 25.5398 19.9249 25.7518 19.7786C25.9487 19.6474 26.0698 19.5061 26.085 19.4254C26.085 19.4103 26.0093 19.3649 25.8831 19.2942C25.6761 19.1782 25.3732 19.0823 25.0248 19.0319H25.0147C24.6715 18.9864 24.3534 18.9965 24.1262 19.052C23.9849 19.0874 23.894 19.1126 23.894 19.1227ZM23.7274 19.9653C23.4296 19.6525 23.263 19.2791 23.2933 19.047V19.0369C23.3336 18.7493 23.5911 18.5525 23.9849 18.4567C24.2827 18.386 24.6765 18.3709 25.0955 18.4264H25.1107C25.5347 18.4869 25.9133 18.608 26.1809 18.7594C26.5343 18.9562 26.7312 19.2236 26.6908 19.5061C26.6605 19.7281 26.4333 20.0511 26.0951 20.2781C25.777 20.4951 25.3429 20.6515 24.8734 20.5859H24.8683C24.4039 20.5253 24.0051 20.2579 23.7274 19.9653Z" fill="white"/>
<path d="M47.0356 18.4719C47.076 18.7696 46.4853 19.5718 45.718 19.6778C44.9456 19.7837 44.2893 19.1581 44.2489 18.8604C44.2085 18.5627 44.7992 18.2297 45.5716 18.1237C46.3339 18.0178 46.9901 18.1742 47.0356 18.4719Z" fill="white"/>
<path d="M47.182 18.4516C47.2073 18.6433 47.0558 18.9713 46.7882 19.2539C46.5308 19.5263 46.1572 19.7736 45.7331 19.8291H45.7281C45.304 19.8846 44.9103 19.7433 44.6175 19.5465C44.3146 19.3447 44.1177 19.0672 44.0874 18.8805C44.0571 18.6635 44.2237 18.4516 44.5215 18.2851C44.774 18.1438 45.1324 18.0278 45.5363 17.9723C45.9401 17.9168 46.3188 17.9319 46.6015 17.9975C46.9346 18.0732 47.1517 18.2296 47.182 18.4516ZM46.5661 19.0419C46.7731 18.825 46.8943 18.603 46.8791 18.492C46.869 18.4112 46.7378 18.3406 46.5358 18.2902C46.2885 18.2296 45.9502 18.2195 45.5817 18.27C45.2182 18.3204 44.8951 18.4264 44.673 18.5475C44.4913 18.6484 44.3852 18.7543 44.3953 18.8351C44.4105 18.9461 44.5619 19.1328 44.7942 19.2892C45.0314 19.4506 45.3545 19.5667 45.6978 19.5213H45.7029C46.0411 19.4759 46.349 19.269 46.5661 19.0419Z" fill="white"/>
<path d="M48.8732 16.4436C48.8672 16.3236 48.885 16.2037 48.9254 16.0906C48.9658 15.9775 49.0281 15.8735 49.1087 15.7845C49.1893 15.6955 49.2867 15.6232 49.3953 15.5718C49.5039 15.5204 49.6215 15.4909 49.7415 15.4849C49.8615 15.4789 49.9815 15.4966 50.0946 15.537C50.2078 15.5774 50.3119 15.6397 50.4009 15.7203C50.49 15.8009 50.5623 15.8982 50.6137 16.0067C50.6652 16.1152 50.6947 16.2328 50.7007 16.3527C50.7764 17.7655 50.6048 18.8856 50.423 20.0612C50.2867 20.9392 50.1454 21.8574 50.1151 22.8817C50.0848 23.8555 50.211 24.9352 50.3473 26.0453C50.7007 28.9667 51.0743 32.0949 48.9035 35.3291C48.6208 35.7479 48.0554 35.8589 47.6363 35.5814C47.4355 35.4464 47.2963 35.2374 47.249 35.0002C47.2017 34.7629 47.2502 34.5166 47.3839 34.315C49.171 31.6459 48.8379 28.8657 48.5249 26.2622C48.3835 25.1018 48.2472 23.9715 48.2876 22.8312C48.3229 21.6506 48.4693 20.7071 48.6107 19.7938C48.7823 18.6939 48.9388 17.6545 48.8732 16.4436Z" fill="white"/>
</svg>
