<svg width="36" height="55" viewBox="0 0 36 55" fill="none" xmlns="http://www.w3.org/2000/svg">
<path d="M9 54.8872C13.9658 54.8872 18 50.7996 18 45.7581V36.629H9C4.03418 36.629 0 40.7166 0 45.7581C0 50.7996 4.03418 54.8872 9 54.8872Z" fill="#0ACF83"/>
<path d="M0 27.4999C0 22.4629 4.03418 18.3708 9 18.3708H18V36.629H9C4.03418 36.629 0 32.5415 0 27.4999Z" fill="#A259FF"/>
<path d="M0 9.24177C0 4.20472 4.03418 0.112671 9 0.112671H18V18.3709H9C4.03418 18.3709 0 14.2833 0 9.24177Z" fill="#F24E1E"/>
<path d="M18 0.112671H27C31.9658 0.112671 36 4.20472 36 9.24177C36 14.2833 31.9702 18.3709 27 18.3709H18V0.112671Z" fill="#FF7262"/>
<path d="M36 27.4999C36 32.5415 31.9702 36.629 27 36.629C22.0298 36.629 18 32.5415 18 27.4999C18 22.4629 22.0298 18.3708 27 18.3708C31.9702 18.3708 36 22.4629 36 27.4999Z" fill="#1ABCFE"/>
</svg>
