<svg width="58" height="58" viewBox="0 0 58 58" fill="none" xmlns="http://www.w3.org/2000/svg">
<g clip-path="url(#clip0_13_239)">
<path fill-rule="evenodd" clip-rule="evenodd" d="M28.9989 0.722556C12.9859 0.722556 0 13.7063 0 29.7214C0 42.535 8.30832 53.4015 19.8311 57.2378C21.2815 57.5065 21.8145 56.6074 21.8145 55.841C21.8145 55.1495 21.7856 52.8653 21.7738 50.4441C13.7053 52.1985 12.0045 47.021 12.0045 47.021C10.6857 43.6685 8.78464 42.7769 8.78464 42.7769C6.15362 40.9754 8.98483 41.015 8.98483 41.015C11.8963 41.2184 13.4291 44.0014 13.4291 44.0014C16.0173 48.435 20.2154 47.1516 21.8691 46.4119C22.1303 44.5377 22.8796 43.2575 23.7101 42.5329C17.2685 41.8018 10.4973 39.3142 10.4973 28.2014C10.4973 25.0362 11.6319 22.4481 13.4847 20.4185C13.1829 19.6865 12.1896 16.7386 13.7641 12.745C13.7641 12.745 16.1992 11.9647 21.7418 15.7175C24.0538 15.0763 26.5338 14.753 28.9968 14.7423C31.4618 14.753 33.9462 15.0752 36.2615 15.7175C41.7965 11.9669 44.2294 12.745 44.2294 12.745C45.8061 16.7397 44.8171 19.6896 44.5153 20.4186C46.3745 22.4481 47.4996 25.0362 47.4996 28.2014C47.4996 39.3399 40.7133 41.7888 34.2577 42.5071C35.2982 43.4062 36.2273 45.1713 36.2273 47.8751C36.2273 51.7531 36.1941 54.8786 36.1941 55.8323C36.1941 56.6041 36.7164 57.5065 38.1871 57.2238C49.7034 53.3855 58.0011 42.5177 58.0011 29.7117C58.0011 13.6987 45.0173 0.712769 29.0011 0.712769L28.999 0.722465L28.9989 0.722556Z" fill="#212121"/>
</g>
<defs>
<clipPath id="clip0_13_239">
<rect width="58" height="58" fill="white"/>
</clipPath>
</defs>
</svg>
