<svg width="84" height="51" viewBox="0 0 84 51" fill="none" xmlns="http://www.w3.org/2000/svg">
<g clip-path="url(#clip0_13_184)">
<path d="M19.8196 13.3048H35.6637V14.5714H21.2719V24.1069H34.8049V25.3736H21.2719V35.8428H35.8278V37.1111H19.8196V13.3048ZM37.0828 13.3048H38.7655L46.2259 23.774L53.852 13.3048L64.2202 0.00598145L47.1824 24.8742L55.9691 37.1111H54.2117L46.2259 25.9711L38.2052 37.1078H36.4893L45.3339 24.8709L37.0828 13.3048ZM56.5891 14.5714V13.3048H74.6431V14.5714H66.3256V37.1094H64.8734V14.5714H56.5841H56.5891ZM0 13.3048H1.82364L26.8572 50.9941L16.5122 37.1111L1.51859 15.104L1.45228 37.1111H0V13.3048ZM74.4972 35.4583C74.3921 35.4603 74.2888 35.4308 74.2005 35.3736C74.1122 35.3164 74.0429 35.2341 74.0014 35.1372C73.9599 35.0403 73.9481 34.9331 73.9675 34.8294C73.9869 34.7257 74.0366 34.6302 74.1103 34.555C74.1841 34.4798 74.2784 34.4284 74.3814 34.4073C74.4843 34.3861 74.5912 34.3963 74.6884 34.4364C74.7856 34.4766 74.8687 34.5449 74.927 34.6326C74.9854 34.7203 75.0164 34.8235 75.0161 34.929C75.0179 34.9983 75.0057 35.0673 74.9804 35.1318C74.9551 35.1962 74.917 35.2549 74.8686 35.3043C74.8202 35.3537 74.7623 35.3928 74.6985 35.4193C74.6347 35.4457 74.5662 35.459 74.4972 35.4583ZM75.9246 34.0635H76.7021C76.7022 34.1621 76.7227 34.2595 76.7623 34.3497C76.8018 34.4399 76.8595 34.5209 76.9318 34.5875C77.0041 34.6541 77.0894 34.705 77.1823 34.7368C77.2751 34.7687 77.3736 34.7809 77.4714 34.7726C77.977 34.7726 78.2638 34.4663 78.2638 33.8938V30.2653H79.0546V33.8988C79.0546 34.9307 78.4611 35.5249 77.4797 35.5249C76.5579 35.5249 75.9246 34.949 75.9246 34.0652V34.0635ZM80.0891 34.0186H80.8733C80.9413 34.5046 81.4137 34.8142 82.0951 34.8142C82.7317 34.8142 83.1976 34.4813 83.1976 34.0286C83.1976 33.6374 82.9008 33.4028 82.2261 33.243L81.563 33.0765C80.6412 32.8585 80.2201 32.4108 80.2201 31.6551C80.2201 30.7413 80.9612 30.1322 82.0736 30.1322C83.1097 30.1322 83.8657 30.7413 83.9121 31.6052H83.1412C83.0666 31.1325 82.6571 30.8362 82.0636 30.8362C81.4386 30.8362 81.0225 31.1391 81.0225 31.6018C81.0225 31.968 81.2911 32.1794 81.9542 32.3359L82.5162 32.474C83.5623 32.7187 83.9934 33.1398 83.9934 33.9187C83.9934 34.9007 83.2357 35.5166 82.0288 35.5166C80.8982 35.5166 80.1389 34.929 80.0825 34.0103L80.0891 34.0186Z" fill="#212121"/>
</g>
<defs>
<clipPath id="clip0_13_184">
<rect width="84" height="51" fill="white"/>
</clipPath>
</defs>
</svg>
