<svg width="63" height="56" viewBox="0 0 63 56" fill="none" xmlns="http://www.w3.org/2000/svg">
<g clip-path="url(#clip0_13_204)">
<path fill-rule="evenodd" clip-rule="evenodd" d="M63 28.0076C63 23.8555 57.7756 19.9228 49.7622 17.4795C51.613 9.35391 50.7876 2.89117 47.168 0.820238C46.3323 0.33566 45.3582 0.106123 44.2917 0.106123V2.95748C44.8813 2.95748 45.3582 3.0748 45.7581 3.28904C47.5063 4.2837 48.26 8.07871 47.6704 12.9602C47.5269 14.1589 47.2961 15.4239 47.0142 16.7144C44.4968 16.1023 41.7488 15.6279 38.8623 15.3219C37.1294 12.9602 35.3298 10.8127 33.52 8.93565C37.7036 5.05902 41.6309 2.94218 44.302 2.94218V0.0908203C40.7695 0.0908203 36.1501 2.59532 31.4744 6.94122C26.7986 2.62083 22.1792 0.141829 18.6467 0.141829V2.99319C21.3025 2.99319 25.2451 5.09983 29.4338 8.94585C27.6343 10.8229 25.8398 12.9551 24.1326 15.3219C21.2307 15.6279 18.4827 16.1023 15.9653 16.7246C15.668 15.4494 15.4526 14.2099 15.2988 13.0214C14.6938 8.13992 15.4424 4.34491 17.1753 3.33494C17.5598 3.10541 18.0623 3.00339 18.6519 3.00339V0.157131C17.5752 0.157131 16.5959 0.386668 15.75 0.871246C12.1406 2.94218 11.3306 9.39472 13.1968 17.4948C5.19873 19.9432 0 23.8658 0 28.0076C0 32.1597 5.22437 36.0924 13.2378 38.5357C11.387 46.6613 12.2124 53.1241 15.832 55.195C16.6677 55.6796 17.6418 55.9091 18.7236 55.9091C22.2561 55.9091 26.8755 53.4046 31.5513 49.0587C36.2271 53.3791 40.8464 55.8581 44.3789 55.8581C45.4556 55.8581 46.4348 55.6286 47.2808 55.144C50.8901 53.0731 51.7002 46.6205 49.834 38.5204C57.8013 36.0822 63 32.1444 63 28.0076ZM37.355 28.0076C37.355 24.7839 34.73 22.1672 31.4846 22.1672C28.2444 22.1672 25.6143 24.7788 25.6143 28.0076C25.6143 31.2364 28.2393 33.8481 31.4846 33.8481C34.73 33.843 37.355 31.2313 37.355 28.0076ZM46.281 19.4841C45.8042 21.1317 45.2146 22.8303 44.5481 24.5289C44.02 23.5087 43.4714 22.4834 42.8665 21.4633C42.2769 20.4431 41.6462 19.4433 41.0156 18.4742C42.8408 18.7445 44.5994 19.0761 46.281 19.4841ZM40.4004 33.0931C39.4006 34.8172 38.3701 36.4546 37.3037 37.9746C35.3914 38.1429 33.4534 38.2297 31.5 38.2297C29.562 38.2297 27.624 38.1379 25.7219 37.9848C24.6555 36.4648 23.6147 34.8427 22.615 33.1288C21.6409 31.4558 20.7539 29.7572 19.9438 28.0433C20.7385 26.3294 21.6409 24.6207 22.5996 22.9476C23.5994 21.2235 24.6299 19.5862 25.6963 18.0661C27.6086 17.8978 29.5466 17.8111 31.5 17.8111C33.438 17.8111 35.376 17.9029 37.2781 18.0559C38.3445 19.576 39.3853 21.198 40.385 22.9119C41.3591 24.585 42.2461 26.2835 43.0562 27.9974C42.2461 29.7062 41.3643 31.415 40.4004 33.0931ZM44.5481 31.4303C45.2402 33.1441 45.8298 34.8529 46.322 36.5158C44.6404 36.9239 42.8665 37.2707 41.031 37.536C41.6616 36.5515 42.2871 35.5415 42.8818 34.5061C43.4663 33.4859 44.02 32.4504 44.5481 31.4303ZM31.5256 45.0597C30.3311 43.8355 29.1365 42.4684 27.9573 40.9739C29.1108 41.0249 30.2952 41.0657 31.4897 41.0657C32.6946 41.0657 33.8892 41.0402 35.0581 40.9739C33.9546 42.3974 32.7754 43.7613 31.5256 45.0597ZM21.9741 37.536C20.1489 37.2656 18.3904 36.9341 16.7087 36.526C17.1855 34.8784 17.7751 33.1799 18.4417 31.4813C18.9697 32.5014 19.5183 33.5267 20.1233 34.5469C20.7283 35.5721 21.3435 36.5668 21.9741 37.536ZM31.459 10.9505C32.6536 12.1747 33.8481 13.5417 35.0273 15.0362C33.8738 14.9852 32.6895 14.9444 31.4949 14.9444C30.29 14.9444 29.0955 14.9699 27.9265 15.0362C29.0301 13.6127 30.2092 12.2488 31.459 10.9505ZM21.9587 18.4742C21.3174 19.4692 20.7003 20.4795 20.1079 21.5041C19.5183 22.5242 18.9646 23.5495 18.4365 24.5697C17.7444 22.8558 17.1548 21.147 16.6626 19.4841C18.3494 19.0863 20.1233 18.7445 21.9587 18.4742ZM10.3359 34.4704C5.78833 32.5423 2.85059 30.0122 2.85059 28.0076C2.85059 26.003 5.79346 23.4577 10.3359 21.5449C11.4382 21.0705 12.6482 20.6522 13.894 20.2544C14.6272 22.7589 15.5911 25.3654 16.7856 28.0331C15.6064 30.6907 14.6528 33.2819 13.9351 35.7762C12.6636 35.3783 11.4536 34.9447 10.3359 34.4704ZM17.2471 52.7262C15.4988 51.7315 14.7451 47.9365 15.3347 43.055C15.4783 41.8563 15.709 40.5913 15.991 39.3008C18.5083 39.9129 21.2563 40.3873 24.1428 40.6934C25.8757 43.055 27.6753 45.2025 29.4851 47.0796C25.2964 50.9511 21.3691 53.0731 18.698 53.0731C18.1187 53.0578 17.6316 52.9455 17.2471 52.7262ZM47.7063 42.9938C48.3113 47.8753 47.5627 51.6703 45.8298 52.6803C45.4453 52.9098 44.9429 53.0118 44.3533 53.0118C41.6975 53.0118 37.7549 50.9052 33.5662 47.0592C35.3657 45.1821 37.1602 43.0499 38.8674 40.6832C41.7693 40.3771 44.5173 39.9027 47.0347 39.2753C47.332 40.5658 47.5627 41.8053 47.7063 42.9938ZM52.6487 34.4704C51.5464 34.9447 50.3364 35.363 49.0906 35.7609C48.3574 33.2564 47.3936 30.6498 46.199 27.9821C47.3782 25.3246 48.3318 22.7334 49.0496 20.2391C50.321 20.6369 51.5259 21.0705 52.6589 21.5398C57.2065 23.4679 60.1443 25.9979 60.1443 28.0025C60.134 30.0122 57.1963 32.5525 52.6487 34.4704Z" fill="#00D8FF"/>
</g>
<defs>
<clipPath id="clip0_13_204">
<rect width="63" height="56" fill="white"/>
</clipPath>
</defs>
</svg>
