<svg width="55" height="55" viewBox="0 0 55 55" fill="none" xmlns="http://www.w3.org/2000/svg">
<path fill-rule="evenodd" clip-rule="evenodd" d="M0 27.5V0H55V55H0V27.5Z" fill="#007ACC"/>
<path fill-rule="evenodd" clip-rule="evenodd" d="M12.0581 27.594V29.8364H19.2061V50.1884H24.2818V29.8364H31.4299V27.6342C31.4299 26.3989 31.4298 25.3918 31.3761 25.365C31.3761 25.3247 27.0166 25.3112 21.7216 25.3112L12.0984 25.3515V27.6074L12.0581 27.594ZM44.1907 25.2978C45.5916 25.629 46.6659 26.2601 47.6282 27.2627C48.1384 27.8133 48.8949 28.7756 48.9486 29.0218C48.9486 29.1023 46.5719 30.7137 45.1261 31.6089C45.0724 31.6491 44.8531 31.4164 44.6293 31.0583C43.9132 30.0423 43.1836 29.5992 42.0422 29.5186C40.3906 29.4067 39.294 30.275 39.294 31.7163C39.294 32.1549 39.3746 32.4056 39.5402 32.7592C39.9117 33.5156 40.601 33.9677 42.7315 34.9031C46.6659 36.595 48.3712 37.7095 49.4006 39.3029C50.5689 41.0888 50.8285 43.8952 50.0452 45.9989C49.1634 48.295 47.0195 49.8482 43.9535 50.3584C42.9911 50.5241 40.789 50.4972 39.7595 50.3182C37.5619 49.9064 35.4537 48.8053 34.1646 47.3909C33.6544 46.8404 32.6786 45.3678 32.7368 45.2738L33.2605 44.9426L35.3239 43.7475L36.877 42.8389L37.2351 43.3223C37.6872 44.0385 38.7077 45.0008 39.2985 45.332C41.0844 46.254 43.479 46.1287 44.6606 45.059C45.1709 44.5935 45.3902 44.0966 45.3902 43.4074C45.3902 42.7763 45.2917 42.4853 44.9784 42.0064C44.5398 41.4021 43.658 40.9053 41.1829 39.8087C38.3362 38.6002 37.1277 37.8304 35.9998 36.6443C35.3552 35.9281 34.7644 34.8136 34.4869 33.896C34.281 33.0993 34.2139 31.1478 34.4063 30.3601C34.9972 27.6119 37.074 25.6872 40.046 25.1367C41.0083 24.9442 43.2776 25.0248 44.2265 25.2754L44.1907 25.2978Z" fill="white"/>
</svg>
